<svg width="872" height="503" viewBox="0 0 872 503" fill="none" xmlns="http://www.w3.org/2000/svg">
<path fill-rule="evenodd" clip-rule="evenodd" d="M59.4695 234.679C52.7413 216.082 49.0732 196.021 49.0732 175.102C49.0732 78.3958 127.469 0 224.175 0C313.327 0 386.917 66.6256 397.87 152.802C398.022 152.8 398.173 152.799 398.324 152.799C398.457 152.798 398.59 152.797 398.724 152.797C398.908 152.796 399.093 152.796 399.277 152.796C403.083 152.796 406.861 152.917 410.606 153.157C422.415 91.9534 476.269 45.7273 540.92 45.7273C582.164 45.7273 619.014 64.54 643.356 94.0524C665.901 61.4842 703.527 40.1508 746.135 40.1508C815.123 40.1508 871.049 96.0765 871.049 165.064C871.049 229.739 821.897 282.934 758.911 289.333C763.637 302.608 766.211 316.904 766.211 331.802C766.211 401.713 709.536 458.388 639.624 458.388C603.819 458.388 571.485 443.522 548.459 419.626C517.634 469.652 462.35 503 399.277 503C320.168 503 253.311 450.538 231.6 378.508C214.996 424.443 171 457.273 119.337 457.273C53.429 457.273 0 403.844 0 337.936C0 293.846 23.9094 255.341 59.4695 234.679Z" fill="#EEF1F6"/>
</svg>
